<mxfile host="app.diagrams.net" modified="2022-04-03T08:15:18.425Z" agent="5.0 (Windows NT 10.0; Win64; x64) AppleWebKit/537.36 (KHTML, like Gecko) Chrome/100.0.4896.60 Safari/537.36" etag="bFu9_L8-jenTbFk6D23N" version="17.4.0" type="github" pages="2">
  <diagram id="R2lEEEUBdFMjLlhIrx00" name="Page-1">
    <mxGraphModel dx="1316" dy="689" grid="1" gridSize="10" guides="1" tooltips="1" connect="1" arrows="1" fold="1" page="1" pageScale="1" pageWidth="850" pageHeight="1100" math="0" shadow="0" extFonts="Permanent Marker^https://fonts.googleapis.com/css?family=Permanent+Marker">
      <root>
        <mxCell id="0" />
        <mxCell id="1" parent="0" />
        <mxCell id="7lzDXjfHuIVDXy_lofM1-3" value="学生" style="swimlane;fontStyle=0;childLayout=stackLayout;horizontal=1;startSize=30;horizontalStack=0;resizeParent=1;resizeParentMax=0;resizeLast=0;collapsible=1;marginBottom=0;fontFamily=Helvetica;" vertex="1" parent="1">
          <mxGeometry x="178" y="210" width="140" height="270" as="geometry">
            <mxRectangle x="80" y="70" width="60" height="30" as="alternateBounds" />
          </mxGeometry>
        </mxCell>
        <mxCell id="7lzDXjfHuIVDXy_lofM1-4" value="学号" style="text;strokeColor=none;fillColor=none;align=left;verticalAlign=middle;spacingLeft=4;spacingRight=4;overflow=hidden;points=[[0,0.5],[1,0.5]];portConstraint=eastwest;rotatable=0;fontFamily=Helvetica;fontStyle=5" vertex="1" parent="7lzDXjfHuIVDXy_lofM1-3">
          <mxGeometry y="30" width="140" height="30" as="geometry" />
        </mxCell>
        <mxCell id="7lzDXjfHuIVDXy_lofM1-5" value="姓名" style="text;strokeColor=none;fillColor=none;align=left;verticalAlign=middle;spacingLeft=4;spacingRight=4;overflow=hidden;points=[[0,0.5],[1,0.5]];portConstraint=eastwest;rotatable=0;fontFamily=Helvetica;" vertex="1" parent="7lzDXjfHuIVDXy_lofM1-3">
          <mxGeometry y="60" width="140" height="30" as="geometry" />
        </mxCell>
        <mxCell id="7lzDXjfHuIVDXy_lofM1-6" value="年龄" style="text;strokeColor=none;fillColor=none;align=left;verticalAlign=middle;spacingLeft=4;spacingRight=4;overflow=hidden;points=[[0,0.5],[1,0.5]];portConstraint=eastwest;rotatable=0;fontFamily=Helvetica;" vertex="1" parent="7lzDXjfHuIVDXy_lofM1-3">
          <mxGeometry y="90" width="140" height="30" as="geometry" />
        </mxCell>
        <mxCell id="7lzDXjfHuIVDXy_lofM1-41" value="出生地" style="text;strokeColor=none;fillColor=none;align=left;verticalAlign=middle;spacingLeft=4;spacingRight=4;overflow=hidden;points=[[0,0.5],[1,0.5]];portConstraint=eastwest;rotatable=0;fontFamily=Helvetica;" vertex="1" parent="7lzDXjfHuIVDXy_lofM1-3">
          <mxGeometry y="120" width="140" height="30" as="geometry" />
        </mxCell>
        <mxCell id="7lzDXjfHuIVDXy_lofM1-40" value="院系" style="text;strokeColor=none;fillColor=none;align=left;verticalAlign=middle;spacingLeft=4;spacingRight=4;overflow=hidden;points=[[0,0.5],[1,0.5]];portConstraint=eastwest;rotatable=0;fontFamily=Helvetica;" vertex="1" parent="7lzDXjfHuIVDXy_lofM1-3">
          <mxGeometry y="150" width="140" height="30" as="geometry" />
        </mxCell>
        <mxCell id="7lzDXjfHuIVDXy_lofM1-39" value="年级" style="text;strokeColor=none;fillColor=none;align=left;verticalAlign=middle;spacingLeft=4;spacingRight=4;overflow=hidden;points=[[0,0.5],[1,0.5]];portConstraint=eastwest;rotatable=0;fontFamily=Helvetica;" vertex="1" parent="7lzDXjfHuIVDXy_lofM1-3">
          <mxGeometry y="180" width="140" height="30" as="geometry" />
        </mxCell>
        <mxCell id="7lzDXjfHuIVDXy_lofM1-38" value="性别" style="text;strokeColor=none;fillColor=none;align=left;verticalAlign=middle;spacingLeft=4;spacingRight=4;overflow=hidden;points=[[0,0.5],[1,0.5]];portConstraint=eastwest;rotatable=0;fontFamily=Helvetica;" vertex="1" parent="7lzDXjfHuIVDXy_lofM1-3">
          <mxGeometry y="210" width="140" height="30" as="geometry" />
        </mxCell>
        <mxCell id="G1MRK59V_kb3aeOXzDQ2-5" value="性别" style="text;strokeColor=none;fillColor=none;align=left;verticalAlign=middle;spacingLeft=4;spacingRight=4;overflow=hidden;points=[[0,0.5],[1,0.5]];portConstraint=eastwest;rotatable=0;fontFamily=Helvetica;" vertex="1" parent="7lzDXjfHuIVDXy_lofM1-3">
          <mxGeometry y="240" width="140" height="30" as="geometry" />
        </mxCell>
        <mxCell id="7lzDXjfHuIVDXy_lofM1-29" value="教师" style="swimlane;fontStyle=0;childLayout=stackLayout;horizontal=1;startSize=26;fillColor=none;horizontalStack=0;resizeParent=1;resizeParentMax=0;resizeLast=0;collapsible=1;marginBottom=0;fontFamily=Helvetica;" vertex="1" parent="1">
          <mxGeometry x="899" y="252" width="142" height="156" as="geometry" />
        </mxCell>
        <mxCell id="7lzDXjfHuIVDXy_lofM1-30" value="职工号" style="text;strokeColor=none;fillColor=none;align=left;verticalAlign=top;spacingLeft=4;spacingRight=4;overflow=hidden;rotatable=0;points=[[0,0.5],[1,0.5]];portConstraint=eastwest;fontFamily=Helvetica;fontStyle=5" vertex="1" parent="7lzDXjfHuIVDXy_lofM1-29">
          <mxGeometry y="26" width="142" height="26" as="geometry" />
        </mxCell>
        <mxCell id="7lzDXjfHuIVDXy_lofM1-31" value="姓名" style="text;strokeColor=none;fillColor=none;align=left;verticalAlign=top;spacingLeft=4;spacingRight=4;overflow=hidden;rotatable=0;points=[[0,0.5],[1,0.5]];portConstraint=eastwest;fontFamily=Helvetica;" vertex="1" parent="7lzDXjfHuIVDXy_lofM1-29">
          <mxGeometry y="52" width="142" height="26" as="geometry" />
        </mxCell>
        <mxCell id="7lzDXjfHuIVDXy_lofM1-32" value="院系" style="text;strokeColor=none;fillColor=none;align=left;verticalAlign=top;spacingLeft=4;spacingRight=4;overflow=hidden;rotatable=0;points=[[0,0.5],[1,0.5]];portConstraint=eastwest;fontFamily=Helvetica;" vertex="1" parent="7lzDXjfHuIVDXy_lofM1-29">
          <mxGeometry y="78" width="142" height="26" as="geometry" />
        </mxCell>
        <mxCell id="7lzDXjfHuIVDXy_lofM1-33" value="研究兴趣" style="text;strokeColor=none;fillColor=none;align=left;verticalAlign=top;spacingLeft=4;spacingRight=4;overflow=hidden;rotatable=0;points=[[0,0.5],[1,0.5]];portConstraint=eastwest;fontFamily=Helvetica;" vertex="1" parent="7lzDXjfHuIVDXy_lofM1-29">
          <mxGeometry y="104" width="142" height="26" as="geometry" />
        </mxCell>
        <mxCell id="7lzDXjfHuIVDXy_lofM1-34" value="性别" style="text;strokeColor=none;fillColor=none;align=left;verticalAlign=top;spacingLeft=4;spacingRight=4;overflow=hidden;rotatable=0;points=[[0,0.5],[1,0.5]];portConstraint=eastwest;fontFamily=Helvetica;" vertex="1" parent="7lzDXjfHuIVDXy_lofM1-29">
          <mxGeometry y="130" width="142" height="26" as="geometry" />
        </mxCell>
        <mxCell id="7lzDXjfHuIVDXy_lofM1-42" value="课程" style="swimlane;fontStyle=0;childLayout=stackLayout;horizontal=1;startSize=26;fillColor=none;horizontalStack=0;resizeParent=1;resizeParentMax=0;resizeLast=0;collapsible=1;marginBottom=0;fontFamily=Helvetica;" vertex="1" parent="1">
          <mxGeometry x="528" y="252" width="140" height="156" as="geometry" />
        </mxCell>
        <mxCell id="7lzDXjfHuIVDXy_lofM1-43" value="课程号" style="text;strokeColor=none;fillColor=none;align=left;verticalAlign=top;spacingLeft=4;spacingRight=4;overflow=hidden;rotatable=0;points=[[0,0.5],[1,0.5]];portConstraint=eastwest;fontFamily=Helvetica;fontStyle=5" vertex="1" parent="7lzDXjfHuIVDXy_lofM1-42">
          <mxGeometry y="26" width="140" height="26" as="geometry" />
        </mxCell>
        <mxCell id="7lzDXjfHuIVDXy_lofM1-44" value="课程名" style="text;strokeColor=none;fillColor=none;align=left;verticalAlign=top;spacingLeft=4;spacingRight=4;overflow=hidden;rotatable=0;points=[[0,0.5],[1,0.5]];portConstraint=eastwest;fontFamily=Helvetica;" vertex="1" parent="7lzDXjfHuIVDXy_lofM1-42">
          <mxGeometry y="52" width="140" height="26" as="geometry" />
        </mxCell>
        <mxCell id="7lzDXjfHuIVDXy_lofM1-45" value="描述" style="text;strokeColor=none;fillColor=none;align=left;verticalAlign=top;spacingLeft=4;spacingRight=4;overflow=hidden;rotatable=0;points=[[0,0.5],[1,0.5]];portConstraint=eastwest;fontFamily=Helvetica;" vertex="1" parent="7lzDXjfHuIVDXy_lofM1-42">
          <mxGeometry y="78" width="140" height="26" as="geometry" />
        </mxCell>
        <mxCell id="7lzDXjfHuIVDXy_lofM1-46" value="最大选课人数" style="text;strokeColor=none;fillColor=none;align=left;verticalAlign=top;spacingLeft=4;spacingRight=4;overflow=hidden;rotatable=0;points=[[0,0.5],[1,0.5]];portConstraint=eastwest;fontFamily=Helvetica;" vertex="1" parent="7lzDXjfHuIVDXy_lofM1-42">
          <mxGeometry y="104" width="140" height="26" as="geometry" />
        </mxCell>
        <mxCell id="7lzDXjfHuIVDXy_lofM1-47" value="学时" style="text;strokeColor=none;fillColor=none;align=left;verticalAlign=top;spacingLeft=4;spacingRight=4;overflow=hidden;rotatable=0;points=[[0,0.5],[1,0.5]];portConstraint=eastwest;fontFamily=Helvetica;" vertex="1" parent="7lzDXjfHuIVDXy_lofM1-42">
          <mxGeometry y="130" width="140" height="26" as="geometry" />
        </mxCell>
        <mxCell id="7lzDXjfHuIVDXy_lofM1-48" value="科研项目" style="swimlane;fontStyle=0;childLayout=stackLayout;horizontal=1;startSize=26;fillColor=none;horizontalStack=0;resizeParent=1;resizeParentMax=0;resizeLast=0;collapsible=1;marginBottom=0;fontFamily=Helvetica;" vertex="1" parent="1">
          <mxGeometry x="518" y="510" width="140" height="104" as="geometry" />
        </mxCell>
        <mxCell id="7lzDXjfHuIVDXy_lofM1-49" value="项目编号" style="text;strokeColor=none;fillColor=none;align=left;verticalAlign=top;spacingLeft=4;spacingRight=4;overflow=hidden;rotatable=0;points=[[0,0.5],[1,0.5]];portConstraint=eastwest;fontFamily=Helvetica;fontStyle=5" vertex="1" parent="7lzDXjfHuIVDXy_lofM1-48">
          <mxGeometry y="26" width="140" height="26" as="geometry" />
        </mxCell>
        <mxCell id="7lzDXjfHuIVDXy_lofM1-50" value="项目名称" style="text;strokeColor=none;fillColor=none;align=left;verticalAlign=top;spacingLeft=4;spacingRight=4;overflow=hidden;rotatable=0;points=[[0,0.5],[1,0.5]];portConstraint=eastwest;fontFamily=Helvetica;" vertex="1" parent="7lzDXjfHuIVDXy_lofM1-48">
          <mxGeometry y="52" width="140" height="26" as="geometry" />
        </mxCell>
        <mxCell id="7lzDXjfHuIVDXy_lofM1-51" value="描述" style="text;strokeColor=none;fillColor=none;align=left;verticalAlign=top;spacingLeft=4;spacingRight=4;overflow=hidden;rotatable=0;points=[[0,0.5],[1,0.5]];portConstraint=eastwest;fontFamily=Helvetica;" vertex="1" parent="7lzDXjfHuIVDXy_lofM1-48">
          <mxGeometry y="78" width="140" height="26" as="geometry" />
        </mxCell>
        <mxCell id="7lzDXjfHuIVDXy_lofM1-52" value="实验室" style="swimlane;fontStyle=0;childLayout=stackLayout;horizontal=1;startSize=26;fillColor=none;horizontalStack=0;resizeParent=1;resizeParentMax=0;resizeLast=0;collapsible=1;marginBottom=0;fontFamily=Helvetica;" vertex="1" parent="1">
          <mxGeometry x="238" y="510" width="140" height="104" as="geometry" />
        </mxCell>
        <mxCell id="7lzDXjfHuIVDXy_lofM1-54" value="实验室编号" style="text;strokeColor=none;fillColor=none;align=left;verticalAlign=top;spacingLeft=4;spacingRight=4;overflow=hidden;rotatable=0;points=[[0,0.5],[1,0.5]];portConstraint=eastwest;fontFamily=Helvetica;fontStyle=5" vertex="1" parent="7lzDXjfHuIVDXy_lofM1-52">
          <mxGeometry y="26" width="140" height="26" as="geometry" />
        </mxCell>
        <mxCell id="7lzDXjfHuIVDXy_lofM1-53" value="实验室名称" style="text;strokeColor=none;fillColor=none;align=left;verticalAlign=top;spacingLeft=4;spacingRight=4;overflow=hidden;rotatable=0;points=[[0,0.5],[1,0.5]];portConstraint=eastwest;fontFamily=Helvetica;fontStyle=0" vertex="1" parent="7lzDXjfHuIVDXy_lofM1-52">
          <mxGeometry y="52" width="140" height="26" as="geometry" />
        </mxCell>
        <mxCell id="7lzDXjfHuIVDXy_lofM1-55" value="实验室研究方向" style="text;strokeColor=none;fillColor=none;align=left;verticalAlign=top;spacingLeft=4;spacingRight=4;overflow=hidden;rotatable=0;points=[[0,0.5],[1,0.5]];portConstraint=eastwest;fontFamily=Helvetica;" vertex="1" parent="7lzDXjfHuIVDXy_lofM1-52">
          <mxGeometry y="78" width="140" height="26" as="geometry" />
        </mxCell>
        <mxCell id="7lzDXjfHuIVDXy_lofM1-57" value="院系" style="swimlane;fontStyle=0;childLayout=stackLayout;horizontal=1;startSize=26;fillColor=none;horizontalStack=0;resizeParent=1;resizeParentMax=0;resizeLast=0;collapsible=1;marginBottom=0;fontFamily=Helvetica;" vertex="1" parent="1">
          <mxGeometry x="528" y="80" width="140" height="104" as="geometry" />
        </mxCell>
        <mxCell id="7lzDXjfHuIVDXy_lofM1-58" value="院系编号" style="text;strokeColor=none;fillColor=none;align=left;verticalAlign=top;spacingLeft=4;spacingRight=4;overflow=hidden;rotatable=0;points=[[0,0.5],[1,0.5]];portConstraint=eastwest;fontFamily=Helvetica;fontStyle=5" vertex="1" parent="7lzDXjfHuIVDXy_lofM1-57">
          <mxGeometry y="26" width="140" height="26" as="geometry" />
        </mxCell>
        <mxCell id="7lzDXjfHuIVDXy_lofM1-59" value="院系名称" style="text;strokeColor=none;fillColor=none;align=left;verticalAlign=top;spacingLeft=4;spacingRight=4;overflow=hidden;rotatable=0;points=[[0,0.5],[1,0.5]];portConstraint=eastwest;fontFamily=Helvetica;" vertex="1" parent="7lzDXjfHuIVDXy_lofM1-57">
          <mxGeometry y="52" width="140" height="26" as="geometry" />
        </mxCell>
        <mxCell id="7lzDXjfHuIVDXy_lofM1-60" value="院长" style="text;strokeColor=none;fillColor=none;align=left;verticalAlign=top;spacingLeft=4;spacingRight=4;overflow=hidden;rotatable=0;points=[[0,0.5],[1,0.5]];portConstraint=eastwest;fontFamily=Helvetica;" vertex="1" parent="7lzDXjfHuIVDXy_lofM1-57">
          <mxGeometry y="78" width="140" height="26" as="geometry" />
        </mxCell>
        <mxCell id="7lzDXjfHuIVDXy_lofM1-61" value="教室" style="swimlane;fontStyle=0;childLayout=stackLayout;horizontal=1;startSize=26;fillColor=none;horizontalStack=0;resizeParent=1;resizeParentMax=0;resizeLast=0;collapsible=1;marginBottom=0;fontFamily=Helvetica;" vertex="1" parent="1">
          <mxGeometry x="830" y="492" width="140" height="104" as="geometry" />
        </mxCell>
        <mxCell id="7lzDXjfHuIVDXy_lofM1-62" value="教室编号" style="text;strokeColor=none;fillColor=none;align=left;verticalAlign=top;spacingLeft=4;spacingRight=4;overflow=hidden;rotatable=0;points=[[0,0.5],[1,0.5]];portConstraint=eastwest;fontFamily=Helvetica;fontStyle=5" vertex="1" parent="7lzDXjfHuIVDXy_lofM1-61">
          <mxGeometry y="26" width="140" height="26" as="geometry" />
        </mxCell>
        <mxCell id="7lzDXjfHuIVDXy_lofM1-63" value="教室位置" style="text;strokeColor=none;fillColor=none;align=left;verticalAlign=top;spacingLeft=4;spacingRight=4;overflow=hidden;rotatable=0;points=[[0,0.5],[1,0.5]];portConstraint=eastwest;fontFamily=Helvetica;" vertex="1" parent="7lzDXjfHuIVDXy_lofM1-61">
          <mxGeometry y="52" width="140" height="26" as="geometry" />
        </mxCell>
        <mxCell id="7lzDXjfHuIVDXy_lofM1-64" value="最大容纳数量" style="text;strokeColor=none;fillColor=none;align=left;verticalAlign=top;spacingLeft=4;spacingRight=4;overflow=hidden;rotatable=0;points=[[0,0.5],[1,0.5]];portConstraint=eastwest;fontFamily=Helvetica;" vertex="1" parent="7lzDXjfHuIVDXy_lofM1-61">
          <mxGeometry y="78" width="140" height="26" as="geometry" />
        </mxCell>
        <mxCell id="7lzDXjfHuIVDXy_lofM1-66" value="书" style="swimlane;fontStyle=0;childLayout=stackLayout;horizontal=1;startSize=26;fillColor=none;horizontalStack=0;resizeParent=1;resizeParentMax=0;resizeLast=0;collapsible=1;marginBottom=0;fontFamily=Helvetica;" vertex="1" parent="1">
          <mxGeometry x="178" y="2" width="140" height="104" as="geometry">
            <mxRectangle x="859" y="120" width="40" height="26" as="alternateBounds" />
          </mxGeometry>
        </mxCell>
        <mxCell id="7lzDXjfHuIVDXy_lofM1-67" value="书编号" style="text;strokeColor=none;fillColor=none;align=left;verticalAlign=top;spacingLeft=4;spacingRight=4;overflow=hidden;rotatable=0;points=[[0,0.5],[1,0.5]];portConstraint=eastwest;fontFamily=Helvetica;fontStyle=5" vertex="1" parent="7lzDXjfHuIVDXy_lofM1-66">
          <mxGeometry y="26" width="140" height="26" as="geometry" />
        </mxCell>
        <mxCell id="7lzDXjfHuIVDXy_lofM1-68" value="书名称" style="text;strokeColor=none;fillColor=none;align=left;verticalAlign=top;spacingLeft=4;spacingRight=4;overflow=hidden;rotatable=0;points=[[0,0.5],[1,0.5]];portConstraint=eastwest;fontFamily=Helvetica;fontStyle=0" vertex="1" parent="7lzDXjfHuIVDXy_lofM1-66">
          <mxGeometry y="52" width="140" height="26" as="geometry" />
        </mxCell>
        <mxCell id="7lzDXjfHuIVDXy_lofM1-69" value="书存放位置" style="text;strokeColor=none;fillColor=none;align=left;verticalAlign=top;spacingLeft=4;spacingRight=4;overflow=hidden;rotatable=0;points=[[0,0.5],[1,0.5]];portConstraint=eastwest;fontFamily=Helvetica;" vertex="1" parent="7lzDXjfHuIVDXy_lofM1-66">
          <mxGeometry y="78" width="140" height="26" as="geometry" />
        </mxCell>
        <mxCell id="7lzDXjfHuIVDXy_lofM1-70" value="选修" style="html=1;whiteSpace=wrap;aspect=fixed;shape=isoRectangle;fontFamily=Helvetica;" vertex="1" parent="1">
          <mxGeometry x="378" y="304" width="86.67" height="52" as="geometry" />
        </mxCell>
        <mxCell id="7lzDXjfHuIVDXy_lofM1-73" value="" style="endArrow=none;html=1;rounded=0;fontFamily=Helvetica;exitX=0.963;exitY=0.474;exitDx=0;exitDy=0;exitPerimeter=0;" edge="1" parent="1" source="7lzDXjfHuIVDXy_lofM1-70">
          <mxGeometry width="50" height="50" relative="1" as="geometry">
            <mxPoint x="468" y="330" as="sourcePoint" />
            <mxPoint x="528" y="330" as="targetPoint" />
          </mxGeometry>
        </mxCell>
        <mxCell id="7lzDXjfHuIVDXy_lofM1-75" value="" style="endArrow=none;html=1;rounded=0;fontFamily=Helvetica;exitX=0.98;exitY=0.053;exitDx=0;exitDy=0;exitPerimeter=0;" edge="1" parent="1" source="7lzDXjfHuIVDXy_lofM1-41">
          <mxGeometry width="50" height="50" relative="1" as="geometry">
            <mxPoint x="328" y="380" as="sourcePoint" />
            <mxPoint x="378" y="330" as="targetPoint" />
          </mxGeometry>
        </mxCell>
        <mxCell id="7lzDXjfHuIVDXy_lofM1-76" value="教授" style="html=1;whiteSpace=wrap;aspect=fixed;shape=isoRectangle;fontFamily=Helvetica;" vertex="1" parent="1">
          <mxGeometry x="708" y="300" width="83.33" height="50" as="geometry" />
        </mxCell>
        <mxCell id="7lzDXjfHuIVDXy_lofM1-77" value="" style="endArrow=none;html=1;rounded=0;fontFamily=Helvetica;exitX=0.994;exitY=0.484;exitDx=0;exitDy=0;exitPerimeter=0;entryX=0;entryY=0.5;entryDx=0;entryDy=0;" edge="1" parent="1" source="7lzDXjfHuIVDXy_lofM1-76" target="7lzDXjfHuIVDXy_lofM1-31">
          <mxGeometry width="50" height="50" relative="1" as="geometry">
            <mxPoint x="778" y="370" as="sourcePoint" />
            <mxPoint x="828" y="320" as="targetPoint" />
          </mxGeometry>
        </mxCell>
        <mxCell id="7lzDXjfHuIVDXy_lofM1-78" value="" style="endArrow=none;html=1;rounded=0;fontFamily=Helvetica;entryX=0.019;entryY=0.513;entryDx=0;entryDy=0;entryPerimeter=0;" edge="1" parent="1" target="7lzDXjfHuIVDXy_lofM1-76">
          <mxGeometry width="50" height="50" relative="1" as="geometry">
            <mxPoint x="668" y="326" as="sourcePoint" />
            <mxPoint x="728" y="340" as="targetPoint" />
          </mxGeometry>
        </mxCell>
        <mxCell id="7lzDXjfHuIVDXy_lofM1-80" value="" style="endArrow=classic;html=1;rounded=0;fontFamily=Helvetica;entryX=1;entryY=0.5;entryDx=0;entryDy=0;" edge="1" parent="1" target="7lzDXjfHuIVDXy_lofM1-53">
          <mxGeometry width="50" height="50" relative="1" as="geometry">
            <mxPoint x="418" y="575" as="sourcePoint" />
            <mxPoint x="458" y="540" as="targetPoint" />
          </mxGeometry>
        </mxCell>
        <mxCell id="7lzDXjfHuIVDXy_lofM1-81" value="隶属于" style="html=1;whiteSpace=wrap;aspect=fixed;shape=isoRectangle;fontFamily=Helvetica;" vertex="1" parent="1">
          <mxGeometry x="418" y="560" width="60" height="36" as="geometry" />
        </mxCell>
        <mxCell id="7lzDXjfHuIVDXy_lofM1-82" value="" style="endArrow=none;html=1;rounded=0;fontFamily=Helvetica;entryX=0;entryY=0.5;entryDx=0;entryDy=0;exitX=1.019;exitY=0.445;exitDx=0;exitDy=0;exitPerimeter=0;" edge="1" parent="1" source="7lzDXjfHuIVDXy_lofM1-81" target="7lzDXjfHuIVDXy_lofM1-50">
          <mxGeometry width="50" height="50" relative="1" as="geometry">
            <mxPoint x="608" y="550" as="sourcePoint" />
            <mxPoint x="658" y="500" as="targetPoint" />
          </mxGeometry>
        </mxCell>
        <mxCell id="7lzDXjfHuIVDXy_lofM1-83" value="属于" style="html=1;whiteSpace=wrap;aspect=fixed;shape=isoRectangle;fontFamily=Helvetica;" vertex="1" parent="1">
          <mxGeometry x="378" y="140" width="90" height="54" as="geometry" />
        </mxCell>
        <mxCell id="7lzDXjfHuIVDXy_lofM1-84" value="" style="endArrow=none;html=1;rounded=0;fontFamily=Helvetica;exitX=0.5;exitY=0;exitDx=0;exitDy=0;entryX=0.037;entryY=0.503;entryDx=0;entryDy=0;entryPerimeter=0;" edge="1" parent="1" source="7lzDXjfHuIVDXy_lofM1-3" target="7lzDXjfHuIVDXy_lofM1-83">
          <mxGeometry width="50" height="50" relative="1" as="geometry">
            <mxPoint x="590" y="290" as="sourcePoint" />
            <mxPoint x="640" y="240" as="targetPoint" />
          </mxGeometry>
        </mxCell>
        <mxCell id="7lzDXjfHuIVDXy_lofM1-85" value="" style="endArrow=classic;html=1;rounded=0;fontFamily=Helvetica;entryX=-0.019;entryY=-0.04;entryDx=0;entryDy=0;entryPerimeter=0;exitX=0.997;exitY=0.531;exitDx=0;exitDy=0;exitPerimeter=0;" edge="1" parent="1" source="7lzDXjfHuIVDXy_lofM1-83" target="7lzDXjfHuIVDXy_lofM1-59">
          <mxGeometry width="50" height="50" relative="1" as="geometry">
            <mxPoint x="450" y="170" as="sourcePoint" />
            <mxPoint x="500" y="120" as="targetPoint" />
          </mxGeometry>
        </mxCell>
        <mxCell id="7lzDXjfHuIVDXy_lofM1-87" value="属于" style="html=1;whiteSpace=wrap;aspect=fixed;shape=isoRectangle;fontFamily=Helvetica;" vertex="1" parent="1">
          <mxGeometry x="730" y="174" width="80" height="48" as="geometry" />
        </mxCell>
        <mxCell id="7lzDXjfHuIVDXy_lofM1-88" value="" style="endArrow=none;html=1;rounded=0;fontFamily=Helvetica;entryX=0;entryY=0;entryDx=0;entryDy=0;exitX=0.784;exitY=0.734;exitDx=0;exitDy=0;exitPerimeter=0;" edge="1" parent="1" source="7lzDXjfHuIVDXy_lofM1-87" target="7lzDXjfHuIVDXy_lofM1-29">
          <mxGeometry width="50" height="50" relative="1" as="geometry">
            <mxPoint x="590" y="290" as="sourcePoint" />
            <mxPoint x="640" y="240" as="targetPoint" />
          </mxGeometry>
        </mxCell>
        <mxCell id="7lzDXjfHuIVDXy_lofM1-89" value="" style="endArrow=classic;html=1;rounded=0;fontFamily=Helvetica;entryX=1.026;entryY=0.988;entryDx=0;entryDy=0;entryPerimeter=0;exitX=0.267;exitY=0.211;exitDx=0;exitDy=0;exitPerimeter=0;" edge="1" parent="1" source="7lzDXjfHuIVDXy_lofM1-87" target="7lzDXjfHuIVDXy_lofM1-58">
          <mxGeometry width="50" height="50" relative="1" as="geometry">
            <mxPoint x="590" y="290" as="sourcePoint" />
            <mxPoint x="640" y="240" as="targetPoint" />
          </mxGeometry>
        </mxCell>
        <mxCell id="G1MRK59V_kb3aeOXzDQ2-1" value="参与" style="html=1;whiteSpace=wrap;aspect=fixed;shape=isoRectangle;fontFamily=Helvetica;" vertex="1" parent="1">
          <mxGeometry x="368" y="408" width="86.67" height="52" as="geometry" />
        </mxCell>
        <mxCell id="G1MRK59V_kb3aeOXzDQ2-2" value="" style="endArrow=none;html=1;rounded=0;fontFamily=Helvetica;exitX=1.01;exitY=0.276;exitDx=0;exitDy=0;exitPerimeter=0;entryX=0.086;entryY=0.58;entryDx=0;entryDy=0;entryPerimeter=0;" edge="1" parent="1" source="7lzDXjfHuIVDXy_lofM1-39" target="G1MRK59V_kb3aeOXzDQ2-1">
          <mxGeometry width="50" height="50" relative="1" as="geometry">
            <mxPoint x="330" y="420" as="sourcePoint" />
            <mxPoint x="380" y="370" as="targetPoint" />
          </mxGeometry>
        </mxCell>
        <mxCell id="G1MRK59V_kb3aeOXzDQ2-7" value="" style="endArrow=none;html=1;rounded=0;fontFamily=Helvetica;entryX=0.913;entryY=0.41;entryDx=0;entryDy=0;entryPerimeter=0;exitX=0.25;exitY=0;exitDx=0;exitDy=0;" edge="1" parent="1" source="7lzDXjfHuIVDXy_lofM1-48" target="G1MRK59V_kb3aeOXzDQ2-1">
          <mxGeometry width="50" height="50" relative="1" as="geometry">
            <mxPoint x="590" y="400" as="sourcePoint" />
            <mxPoint x="640" y="350" as="targetPoint" />
          </mxGeometry>
        </mxCell>
        <mxCell id="G1MRK59V_kb3aeOXzDQ2-8" value="指导" style="html=1;whiteSpace=wrap;aspect=fixed;shape=isoRectangle;fontFamily=Helvetica;" vertex="1" parent="1">
          <mxGeometry x="700" y="434" width="76.67" height="46" as="geometry" />
        </mxCell>
        <mxCell id="G1MRK59V_kb3aeOXzDQ2-10" value="" style="endArrow=none;html=1;rounded=0;fontFamily=Helvetica;entryX=-0.026;entryY=0.263;entryDx=0;entryDy=0;entryPerimeter=0;exitX=0.795;exitY=0.299;exitDx=0;exitDy=0;exitPerimeter=0;" edge="1" parent="1" source="G1MRK59V_kb3aeOXzDQ2-8" target="7lzDXjfHuIVDXy_lofM1-33">
          <mxGeometry width="50" height="50" relative="1" as="geometry">
            <mxPoint x="830" y="440" as="sourcePoint" />
            <mxPoint x="880" y="390" as="targetPoint" />
          </mxGeometry>
        </mxCell>
        <mxCell id="G1MRK59V_kb3aeOXzDQ2-11" value="" style="endArrow=classic;html=1;rounded=0;fontFamily=Helvetica;exitX=-0.004;exitY=0.46;exitDx=0;exitDy=0;exitPerimeter=0;entryX=1;entryY=0;entryDx=0;entryDy=0;" edge="1" parent="1" source="G1MRK59V_kb3aeOXzDQ2-8" target="7lzDXjfHuIVDXy_lofM1-48">
          <mxGeometry width="50" height="50" relative="1" as="geometry">
            <mxPoint x="610" y="500" as="sourcePoint" />
            <mxPoint x="660" y="450" as="targetPoint" />
          </mxGeometry>
        </mxCell>
        <mxCell id="G1MRK59V_kb3aeOXzDQ2-13" value="安排" style="html=1;whiteSpace=wrap;aspect=fixed;shape=isoRectangle;fontFamily=Helvetica;" vertex="1" parent="1">
          <mxGeometry x="740" y="370" width="66.67" height="40" as="geometry" />
        </mxCell>
        <mxCell id="G1MRK59V_kb3aeOXzDQ2-14" value="" style="endArrow=classic;html=1;rounded=0;fontFamily=Helvetica;exitX=0.004;exitY=0.467;exitDx=0;exitDy=0;exitPerimeter=0;entryX=1.01;entryY=0.064;entryDx=0;entryDy=0;entryPerimeter=0;" edge="1" parent="1" source="G1MRK59V_kb3aeOXzDQ2-13" target="7lzDXjfHuIVDXy_lofM1-46">
          <mxGeometry width="50" height="50" relative="1" as="geometry">
            <mxPoint x="690" y="400" as="sourcePoint" />
            <mxPoint x="740" y="350" as="targetPoint" />
          </mxGeometry>
        </mxCell>
        <mxCell id="G1MRK59V_kb3aeOXzDQ2-15" value="" style="endArrow=classic;html=1;rounded=0;fontFamily=Helvetica;exitX=0.968;exitY=0.467;exitDx=0;exitDy=0;exitPerimeter=0;entryX=0.5;entryY=0;entryDx=0;entryDy=0;" edge="1" parent="1" source="G1MRK59V_kb3aeOXzDQ2-13" target="7lzDXjfHuIVDXy_lofM1-61">
          <mxGeometry width="50" height="50" relative="1" as="geometry">
            <mxPoint x="800" y="500" as="sourcePoint" />
            <mxPoint x="850" y="450" as="targetPoint" />
          </mxGeometry>
        </mxCell>
        <mxCell id="G1MRK59V_kb3aeOXzDQ2-17" value="&amp;nbsp;借阅" style="html=1;whiteSpace=wrap;aspect=fixed;shape=isoRectangle;fontFamily=Helvetica;" vertex="1" parent="1">
          <mxGeometry x="210" y="134" width="66.67" height="40" as="geometry" />
        </mxCell>
        <mxCell id="G1MRK59V_kb3aeOXzDQ2-19" value="" style="endArrow=none;html=1;rounded=0;fontFamily=Helvetica;exitX=0.5;exitY=0.053;exitDx=0;exitDy=0;exitPerimeter=0;" edge="1" parent="1" source="G1MRK59V_kb3aeOXzDQ2-17">
          <mxGeometry width="50" height="50" relative="1" as="geometry">
            <mxPoint x="590" y="210" as="sourcePoint" />
            <mxPoint x="240" y="110" as="targetPoint" />
          </mxGeometry>
        </mxCell>
        <mxCell id="G1MRK59V_kb3aeOXzDQ2-20" value="" style="endArrow=classic;html=1;rounded=0;fontFamily=Helvetica;exitX=0.522;exitY=1.013;exitDx=0;exitDy=0;exitPerimeter=0;" edge="1" parent="1" source="G1MRK59V_kb3aeOXzDQ2-17">
          <mxGeometry width="50" height="50" relative="1" as="geometry">
            <mxPoint x="500" y="210" as="sourcePoint" />
            <mxPoint x="250" y="210" as="targetPoint" />
          </mxGeometry>
        </mxCell>
      </root>
    </mxGraphModel>
  </diagram>
  <diagram id="HQICcJeLd37k1XiFqSL1" name="Page-2">
    <mxGraphModel dx="921" dy="482" grid="1" gridSize="10" guides="1" tooltips="1" connect="1" arrows="1" fold="1" page="1" pageScale="1" pageWidth="827" pageHeight="1169" math="0" shadow="0">
      <root>
        <mxCell id="0" />
        <mxCell id="1" parent="0" />
      </root>
    </mxGraphModel>
  </diagram>
</mxfile>
